<svg xmlns="http://www.w3.org/2000/svg" version="1.1" xmlns:xlink="http://www.w3.org/1999/xlink" xmlns:svgjs="http://svgjs.dev/svgjs" width="2000" height="378" viewBox="0 0 2000 378"><g transform="matrix(1,0,0,1,-1.2121212121212466,-1.0292458621924538)"><svg viewBox="0 0 396 75" data-background-color="#ffffff" preserveAspectRatio="xMidYMid meet" height="378" width="2000" xmlns="http://www.w3.org/2000/svg" xmlns:xlink="http://www.w3.org/1999/xlink"><g id="tight-bounds" transform="matrix(1,0,0,1,0.2400000000000091,0.20421545416914455)"><svg viewBox="0 0 395.52 74.59156909698316" height="74.59156909698316" width="395.52"><g><svg viewBox="0 0 397.4975999999999 74.96452694246807" height="74.59156909698316" width="395.52"><g><rect width="397.4975999999999" height="2.2960644497716505" x="0" y="41.19720852860403" fill="#4d7e3e" opacity="1" stroke-width="0" stroke="transparent" fill-opacity="1" class="rect-o-0" data-fill-palette-color="secondary" rx="1%" id="o-0" data-palette-color="#4d7e3e"></rect></g><g transform="matrix(1,0,0,1,0.9887999999999693,49.50391289924387)"><svg viewBox="0 0 395.52 25.460614043224194" height="25.460614043224194" width="395.52"><g><svg viewBox="0 0 395.52 25.460614043224194" height="25.460614043224194" width="395.52"><g><svg viewBox="0 0 395.52 25.460614043224194" height="25.460614043224194" width="395.52"><g transform="matrix(1,0,0,1,0,0)"><svg width="395.52" viewBox="1.9000000953674316 -34.25 539.0099487304688 34.70000076293945" height="25.460614043224194" data-palette-color="#4d7e3e"><path d="M13.65 0.45L13.65 0.45Q10.4 0.45 7.5-0.33 4.6-1.1 1.9-2.5L1.9-2.5Q2.3-4.5 2.43-6.6 2.55-8.7 2.55-10.6L2.55-10.6Q3.75-10.95 5.15-11.05 6.55-11.15 7.8-11.15L7.8-11.15Q8.05-8.15 8.6-6.43 9.15-4.7 10.38-3.95 11.6-3.2 13.65-3.2L13.65-3.2Q16.45-3.2 17.65-4.38 18.85-5.55 18.85-7.05L18.85-7.05Q18.85-8.55 17.68-9.6 16.5-10.65 14.65-11.53 12.8-12.4 10.73-13.38 8.65-14.35 6.83-15.73 5-17.1 3.8-19.15 2.6-21.2 2.6-24.25L2.6-24.25Q2.6-27.8 4.2-29.98 5.8-32.15 8.43-33.2 11.05-34.25 14.25-34.25L14.25-34.25Q16.15-34.25 18.03-33.95 19.9-33.65 21.53-33.18 23.15-32.7 24.1-32.05L24.1-32.05Q24.1-30.1 24.15-28.03 24.2-25.95 24.4-24.75L24.4-24.75Q23.5-24.2 22.03-23.98 20.55-23.75 19.4-23.75L19.4-23.75Q19-26.5 18.23-28 17.45-29.5 16.32-30.1 15.2-30.7 13.75-30.7L13.75-30.7Q11.9-30.7 10.68-29.85 9.45-29 9.45-27.3L9.45-27.3Q9.45-25.6 10.7-24.45 11.95-23.3 13.9-22.38 15.85-21.45 18.05-20.48 20.25-19.5 22.2-18.13 24.15-16.75 25.4-14.73 26.65-12.7 26.65-9.7L26.65-9.7Q26.65-6.7 25.18-4.4 23.7-2.1 20.83-0.83 17.95 0.45 13.65 0.45ZM49.65 0.15L49.65 0.15Q49.65-0.7 49.77-1.7 49.9-2.7 50.1-3.3L50.1-3.3Q51.45-3.4 52.15-3.83 52.85-4.25 53.1-5.35 53.35-6.45 53.35-8.6L53.35-8.6 53.35-25.3Q53.35-27.4 53.1-28.45 52.85-29.5 52.15-29.93 51.45-30.35 50.05-30.5L50.05-30.5Q49.85-31.15 49.75-32.13 49.65-33.1 49.65-33.95L49.65-33.95Q50.5-33.9 52-33.88 53.5-33.85 55.1-33.83 56.7-33.8 57.85-33.8L57.85-33.8Q59.05-33.8 60.47-33.83 61.9-33.85 63.3-33.88 64.7-33.9 65.7-33.95L65.7-33.95Q65.7-33.05 65.65-32.2 65.6-31.35 65.3-30.5L65.3-30.5Q63.95-30.35 63.22-29.95 62.5-29.55 62.25-28.48 62-27.4 62-25.3L62-25.3 62-8.6Q62-6.45 62.27-5.35 62.55-4.25 63.27-3.83 64-3.4 65.35-3.3L65.35-3.3Q65.5-2.7 65.6-1.73 65.7-0.75 65.7 0.15L65.7 0.15Q64.5 0.05 62.52 0.03 60.55 0 58.25 0L58.25 0Q55.9 0 53.6 0.03 51.3 0.05 49.65 0.15ZM29.9 0.15L29.9 0.15Q29.9-0.7 30.02-1.7 30.15-2.7 30.3-3.3L30.3-3.3Q31.65-3.4 32.37-3.83 33.1-4.25 33.35-5.35 33.6-6.45 33.6-8.6L33.6-8.6 33.6-25.3Q33.6-27.4 33.35-28.45 33.1-29.5 32.37-29.93 31.65-30.35 30.3-30.5L30.3-30.5Q30.1-31.15 30-32.13 29.9-33.1 29.9-33.95L29.9-33.95Q30.75-33.9 32.22-33.88 33.7-33.85 35.32-33.83 36.95-33.8 38.1-33.8L38.1-33.8Q39.25-33.8 40.7-33.83 42.15-33.85 43.55-33.88 44.95-33.9 45.95-33.95L45.95-33.95Q45.95-33.05 45.9-32.2 45.85-31.35 45.55-30.5L45.55-30.5Q44.2-30.35 43.47-29.95 42.75-29.55 42.5-28.48 42.25-27.4 42.25-25.3L42.25-25.3 42.25-8.6Q42.25-6.45 42.5-5.35 42.75-4.25 43.5-3.83 44.25-3.4 45.55-3.3L45.55-3.3Q45.75-2.7 45.85-1.73 45.95-0.75 45.95 0.15L45.95 0.15Q44.75 0.05 42.75 0.03 40.75 0 38.45 0L38.45 0Q36.15 0 33.82 0.03 31.5 0.05 29.9 0.15ZM42-15.25L42-15.25 42-19.2 53.65-19.2 53.65-15.7Q52.35-15.7 50.8-15.68 49.25-15.65 47.67-15.6 46.1-15.55 44.62-15.48 43.15-15.4 42-15.25ZM86.5-34.1L86.5-34.1 97.8-9Q98.95-6.65 99.59-5.43 100.25-4.2 100.82-3.8 101.4-3.4 102.09-3.3L102.09-3.3Q102.3-2.65 102.4-1.78 102.5-0.9 102.5 0.15L102.5 0.15Q101.59 0.05 100.2 0.03 98.8 0 97.4 0 96 0 95.2 0L95.2 0Q94.59 0 93.52 0 92.45 0 91.22 0.03 90 0.05 88.9 0.08 87.8 0.1 87.2 0.15L87.2 0.15Q87.2-1.05 87.3-1.85 87.4-2.65 87.59-3.3L87.59-3.3Q89.34-3.65 89.67-4.48 90-5.3 89.2-7.15L89.2-7.15 84.7-17.4Q83.55-20.05 82.82-22.33 82.09-24.6 81.59-26.8L81.59-26.8 83.05-26.8Q82.45-24.55 81.72-22.25 81-19.95 79.95-17.45L79.95-17.45 76.15-7.55Q75.5-5.95 75.9-4.75 76.3-3.55 78-3.3L78-3.3Q78.2-2.6 78.3-1.75 78.4-0.9 78.4 0.15L78.4 0.15Q77.84 0.1 76.84 0.08 75.84 0.05 74.77 0.03 73.7 0 72.84 0L72.84 0Q71.59 0 70.27 0.03 68.95 0.05 68.2 0.15L68.2 0.15Q68.2-0.85 68.3-1.65 68.4-2.45 68.65-3.3L68.65-3.3Q69.5-3.45 70.09-3.93 70.7-4.4 71.27-5.45 71.84-6.5 72.65-8.45L72.65-8.45 83.2-33.85Q84.05-34.05 84.77-34.08 85.5-34.1 86.5-34.1ZM75.95-12L88.34-12 89.25-9Q85.9-9 82.27-8.9 78.65-8.8 75.2-8.45L75.2-8.45 75.95-12ZM103.89-33.95L103.89-33.95Q104.49-33.9 105.52-33.88 106.54-33.85 107.74-33.83 108.94-33.8 109.97-33.8 110.99-33.8 111.59-33.8L111.59-33.8Q112.39-33.8 113.82-33.8 115.24-33.8 116.84-33.85 118.44-33.9 119.54-33.95L119.54-33.95Q119.54-33.05 119.47-32.18 119.39-31.3 119.19-30.5L119.19-30.5Q117.59-30.3 116.87-29.83 116.14-29.35 116.24-28.23 116.34-27.1 117.14-24.85L117.14-24.85Q117.89-22.65 118.64-20.2 119.39-17.75 120.19-15.03 120.99-12.3 121.84-9.35L121.84-9.35 119.79-9.35 128.39-33.85Q129.19-34.05 130.17-34.13 131.14-34.2 132.09-34.2L132.09-34.2Q133.79-29.9 135.34-25.85 136.89-21.8 138.42-17.75 139.94-13.7 141.44-9.4L141.44-9.4 139.69-9.4 143.99-23.35Q145.14-27.1 144.52-28.6 143.89-30.1 141.44-30.5L141.44-30.5Q141.14-31.25 141.07-32.2 140.99-33.15 140.99-33.95L140.99-33.95Q142.04-33.9 143.69-33.85 145.34-33.8 146.69-33.8L146.69-33.8Q147.84-33.8 149.42-33.85 150.99-33.9 151.99-33.95L151.99-33.95Q151.99-33.1 151.94-32.23 151.89-31.35 151.54-30.5L151.54-30.5Q150.69-30.2 150.04-29.53 149.39-28.85 148.82-27.4 148.24-25.95 147.39-23.3L147.39-23.3 140.39 0.05Q139.69 0.25 138.32 0.35 136.94 0.45 135.84 0.45L135.84 0.45Q134.34-3.75 132.89-7.63 131.44-11.5 129.94-15.43 128.44-19.35 126.69-23.55L126.69-23.55 128.44-23.55 120.19 0.1Q119.64 0.25 118.82 0.33 117.99 0.4 117.17 0.43 116.34 0.45 115.79 0.45L115.79 0.45Q113.79-6.25 111.84-12.55 109.89-18.85 108.14-24.05L108.14-24.05Q107.19-26.95 106.64-28.23 106.09-29.5 105.59-29.9 105.09-30.3 104.19-30.4L104.19-30.4Q103.99-31.2 103.94-32.1 103.89-33 103.89-33.95ZM180.89-12.25L179.64 0.4 157.64-29.05Q157.19-29.8 156.51-30.08 155.84-30.35 154.34-30.5L154.34-30.5Q154.14-31.25 154.04-32.15 153.94-33.05 153.94-33.95L153.94-33.95Q154.59-33.9 155.69-33.88 156.79-33.85 157.94-33.83 159.09-33.8 159.84-33.8L159.84-33.8Q161.04-33.8 162.51-33.83 163.99-33.85 164.94-33.95L164.94-33.95 180.89-12.25ZM153.94 0.15L153.94 0.15Q153.94-0.9 154.01-1.75 154.09-2.6 154.34-3.3L154.34-3.3Q155.84-3.45 156.66-4.05 157.49-4.65 157.87-6.15 158.24-7.65 158.24-10.5L158.24-10.5 158.24-30.7 161.69-30.4 161.69-10.5Q161.69-7.65 161.99-6.15 162.29-4.65 163.12-4.05 163.94-3.45 165.49-3.3L165.49-3.3Q165.69-2.6 165.74-1.68 165.79-0.75 165.79 0.15L165.79 0.15Q165.09 0.1 164.04 0.08 162.99 0.05 161.94 0.03 160.89 0 160.04 0L160.04 0Q159.24 0 158.01 0.03 156.79 0.05 155.69 0.08 154.59 0.1 153.94 0.15ZM179.64 0.4L179.64 0.4 180.14-7.9 180.14-23.35Q180.14-26.2 179.84-27.68 179.54-29.15 178.66-29.75 177.79-30.35 176.09-30.5L176.09-30.5Q175.89-31.35 175.81-32.27 175.74-33.2 175.74-33.95L175.74-33.95Q176.49-33.9 177.59-33.88 178.69-33.85 179.87-33.83 181.04-33.8 181.84-33.8L181.84-33.8Q183.09-33.8 184.59-33.85 186.09-33.9 186.99-33.95L186.99-33.95Q186.99-33.1 186.94-32.25 186.89-31.4 186.69-30.5L186.69-30.5Q185.44-30.4 184.76-29.8 184.09-29.2 183.84-27.73 183.59-26.25 183.59-23.35L183.59-23.35 183.59 0Q182.74 0.25 181.79 0.33 180.84 0.4 179.64 0.4ZM190.49-33.95L190.49-33.95Q191.54-33.9 193.14-33.88 194.74-33.85 196.51-33.83 198.29-33.8 199.94-33.8 201.59-33.8 202.84-33.8L202.84-33.8 202.84-8.9Q202.84-6.75 203.19-5.53 203.54-4.3 204.41-3.83 205.29-3.35 206.89-3.35L206.89-3.35 205.29 0Q203.94 0 201.81 0.03 199.69 0.05 197.41 0.08 195.14 0.1 193.24 0.13 191.34 0.15 190.49 0.15L190.49 0.15Q190.49-0.85 190.56-1.78 190.64-2.7 190.84-3.3L190.84-3.3Q192.19-3.4 192.91-3.83 193.64-4.25 193.91-5.38 194.19-6.5 194.19-8.7L194.19-8.7 194.19-25.3Q194.19-27.4 193.91-28.45 193.64-29.5 192.91-29.93 192.19-30.35 190.79-30.5L190.79-30.5Q190.59-31.15 190.54-32.18 190.49-33.2 190.49-33.95ZM214.94-10.05L214.94-10.05Q216.34-9.9 217.51-9.47 218.69-9.05 219.29-8.45L219.29-8.45Q218.74-6.75 218.34-4.45 217.94-2.15 217.74 0.1L217.74 0.1Q216.39 0.05 214.29 0.05 212.19 0.05 209.81 0.03 207.44 0 205.29 0L205.29 0 206.89-3.35 207.59-3.35Q209.79-3.35 211.16-4.08 212.54-4.8 213.39-6.28 214.24-7.75 214.94-10.05ZM211.99-22.75L211.99-22.75Q211.94-21.55 211.86-20.15 211.79-18.75 211.79-17L211.79-17Q211.79-15.1 211.86-13.68 211.94-12.25 211.99-11.1L211.99-11.1Q210.79-11.1 209.89-11.2 208.99-11.3 208.19-11.55L208.19-11.55Q207.99-13.75 207.04-14.48 206.09-15.2 203.64-15.2L203.64-15.2 200.64-15.2 200.64-18.55 203.64-18.55Q206.29-18.55 207.16-19.35 208.04-20.15 208.09-22.2L208.09-22.2Q208.89-22.55 209.94-22.65 210.99-22.75 211.99-22.75ZM216.34-33.95L216.34-33.95Q216.39-32.75 216.54-31.15 216.69-29.55 216.89-28.03 217.09-26.5 217.39-25.3L217.39-25.3Q216.59-24.95 215.56-24.73 214.54-24.5 213.04-24.5L213.04-24.5Q212.79-26.2 212.11-27.58 211.44-28.95 209.99-29.73 208.54-30.5 205.84-30.5L205.84-30.5 200.89-30.5 202.44-33.8Q206.24-33.8 208.86-33.83 211.49-33.85 213.29-33.88 215.09-33.9 216.34-33.95ZM222.23-33.95L222.23-33.95Q223.28-33.9 224.88-33.88 226.48-33.85 228.26-33.83 230.03-33.8 231.69-33.8 233.33-33.8 234.58-33.8L234.58-33.8 234.58-8.9Q234.58-6.75 234.94-5.53 235.28-4.3 236.16-3.83 237.03-3.35 238.63-3.35L238.63-3.35 237.03 0Q235.69 0 233.56 0.03 231.44 0.05 229.16 0.08 226.88 0.1 224.98 0.13 223.08 0.15 222.23 0.15L222.23 0.15Q222.23-0.85 222.31-1.78 222.38-2.7 222.58-3.3L222.58-3.3Q223.94-3.4 224.66-3.83 225.38-4.25 225.66-5.38 225.94-6.5 225.94-8.7L225.94-8.7 225.94-25.3Q225.94-27.4 225.66-28.45 225.38-29.5 224.66-29.93 223.94-30.35 222.53-30.5L222.53-30.5Q222.33-31.15 222.28-32.18 222.23-33.2 222.23-33.95ZM246.69-10.05L246.69-10.05Q248.08-9.9 249.26-9.47 250.44-9.05 251.03-8.45L251.03-8.45Q250.48-6.75 250.08-4.45 249.69-2.15 249.48 0.1L249.48 0.1Q248.13 0.05 246.03 0.05 243.94 0.05 241.56 0.03 239.19 0 237.03 0L237.03 0 238.63-3.35 239.33-3.35Q241.53-3.35 242.91-4.08 244.28-4.8 245.13-6.28 245.98-7.75 246.69-10.05ZM243.73-22.75L243.73-22.75Q243.69-21.55 243.61-20.15 243.53-18.75 243.53-17L243.53-17Q243.53-15.1 243.61-13.68 243.69-12.25 243.73-11.1L243.73-11.1Q242.53-11.1 241.63-11.2 240.73-11.3 239.94-11.55L239.94-11.55Q239.73-13.75 238.78-14.48 237.83-15.2 235.38-15.2L235.38-15.2 232.38-15.2 232.38-18.55 235.38-18.55Q238.03-18.55 238.91-19.35 239.78-20.15 239.83-22.2L239.83-22.2Q240.63-22.55 241.69-22.65 242.73-22.75 243.73-22.75ZM248.08-33.95L248.08-33.95Q248.13-32.75 248.28-31.15 248.44-29.55 248.63-28.03 248.83-26.5 249.13-25.3L249.13-25.3Q248.33-24.95 247.31-24.73 246.28-24.5 244.78-24.5L244.78-24.5Q244.53-26.2 243.86-27.58 243.19-28.95 241.73-29.73 240.28-30.5 237.58-30.5L237.58-30.5 232.63-30.5 234.19-33.8Q237.98-33.8 240.61-33.83 243.23-33.85 245.03-33.88 246.83-33.9 248.08-33.95ZM280.73 0.45L280.73 0.45Q275.73 0.45 271.93-1.78 268.13-4 266-7.95 263.88-11.9 263.88-17.1L263.88-17.1Q263.88-21.35 265.28-24.58 266.68-27.8 269.08-29.95 271.48-32.1 274.56-33.18 277.63-34.25 280.93-34.25L280.93-34.25Q283.78-34.25 286.56-33.58 289.33-32.9 291.98-31.65L291.98-31.65Q291.68-29.95 291.56-27.95 291.43-25.95 291.43-23.9L291.43-23.9Q290.78-23.6 289.45-23.43 288.13-23.25 287.08-23.25L287.08-23.25Q287.03-26.1 286.28-27.75 285.53-29.4 284.25-30.13 282.98-30.85 281.18-30.85L281.18-30.85Q278.93-30.85 277.31-29.83 275.68-28.8 274.73-27.03 273.78-25.25 273.31-23.03 272.83-20.8 272.83-18.4L272.83-18.4Q272.83-14.25 274-10.95 275.18-7.65 277.5-5.75 279.83-3.85 283.48-3.85L283.48-3.85Q285.38-3.85 287.4-4.42 289.43-5 291.43-6.15L291.43-6.15Q291.88-5.7 292.23-5.05 292.58-4.4 292.68-3.7L292.68-3.7Q290.58-1.95 287.65-0.75 284.73 0.45 280.73 0.45ZM318.03 0.45L318.03 0.45Q317.43-0.85 316.88-2.08 316.33-3.3 315.83-4.53 315.33-5.75 314.78-7.05L314.78-7.05Q314.03-8.85 313.38-10.08 312.73-11.3 311.93-12.23 311.13-13.15 309.93-14.05L309.93-14.05 312.18-13.65Q310.83-13.6 309.8-13.58 308.78-13.55 307.48-13.6L307.48-13.6 307.88-17.25Q308.63-17.15 309.08-17.1 309.53-17.05 309.93-17.05L309.93-17.05Q311.73-17.05 313.25-17.78 314.78-18.5 315.75-20.03 316.73-21.55 316.73-23.85L316.73-23.85Q316.73-27 315.2-28.8 313.68-30.6 310.78-30.6L310.78-30.6Q309.98-30.6 309.3-30.5 308.63-30.4 307.88-30.15L307.88-30.15 308.28-31.8 308.28-8.95Q308.28-6.5 308.53-5.3 308.78-4.1 309.35-3.73 309.93-3.35 310.93-3.3L310.93-3.3Q311.13-2.8 311.18-1.8 311.23-0.8 311.23 0.15L311.23 0.15Q310.28 0.1 308.78 0.08 307.28 0.05 305.78 0.03 304.28 0 303.23 0L303.23 0Q301.38 0 299.45 0.03 297.53 0.05 295.93 0.15L295.93 0.15Q295.93-0.95 296-1.8 296.08-2.65 296.28-3.3L296.28-3.3Q297.63-3.4 298.35-3.83 299.08-4.25 299.35-5.35 299.63-6.45 299.63-8.6L299.63-8.6 299.63-25.35Q299.63-27.45 299.35-28.53 299.08-29.6 298.35-30 297.63-30.4 296.23-30.55L296.23-30.55Q296.03-31.25 295.98-32.35 295.93-33.45 295.93-33.95L295.93-33.95Q297.23-33.9 299.35-33.85 301.48-33.8 303.83-33.8L303.83-33.8Q305.43-33.8 308.1-33.9 310.78-34 313.68-34L313.68-34Q317.88-34 320.55-32.77 323.23-31.55 324.48-29.48 325.73-27.4 325.73-24.85L325.73-24.85Q325.73-21.8 324.55-19.58 323.38-17.35 321.33-16.1 319.28-14.85 316.68-14.5L316.68-14.5 317.63-15.15Q319.13-14.45 320.05-13.63 320.98-12.8 321.9-11.33 322.83-9.85 324.23-7.15L324.23-7.15Q324.98-5.75 325.58-4.98 326.18-4.2 326.93-3.88 327.68-3.55 328.83-3.45L328.83-3.45Q328.83-2.5 328.73-1.65 328.63-0.8 328.38 0L328.38 0Q324.98 0 322.3 0.1 319.63 0.2 318.03 0.45ZM348.32 0.45L348.32 0.45Q343.02 0.45 339.22-1.78 335.42-4 333.35-7.93 331.27-11.85 331.27-17.05L331.27-17.05Q331.27-21 332.55-24.18 333.82-27.35 336.1-29.6 338.38-31.85 341.5-33.05 344.63-34.25 348.32-34.25L348.32-34.25Q353.47-34.25 357.3-32.18 361.13-30.1 363.27-26.35 365.42-22.6 365.42-17.5L365.42-17.5Q365.42-13.55 364.22-10.28 363.02-7 360.77-4.6 358.52-2.2 355.38-0.88 352.22 0.45 348.32 0.45ZM349.02-3.1L349.02-3.1Q351.42-3.1 353.07-4.78 354.72-6.45 355.6-9.43 356.47-12.4 356.47-16.4L356.47-16.4Q356.47-20.4 355.38-23.68 354.27-26.95 352.27-28.9 350.27-30.85 347.57-30.85L347.57-30.85Q345.32-30.85 343.67-29.35 342.02-27.85 341.13-25.05 340.22-22.25 340.22-18.3L340.22-18.3Q340.22-15.25 340.77-12.5 341.32-9.75 342.4-7.63 343.47-5.5 345.13-4.3 346.77-3.1 349.02-3.1ZM380.82 0.45L380.82 0.45Q377.57 0.45 374.67-0.33 371.77-1.1 369.07-2.5L369.07-2.5Q369.47-4.5 369.6-6.6 369.72-8.7 369.72-10.6L369.72-10.6Q370.92-10.95 372.32-11.05 373.72-11.15 374.97-11.15L374.97-11.15Q375.22-8.15 375.77-6.43 376.32-4.7 377.55-3.95 378.77-3.2 380.82-3.2L380.82-3.2Q383.62-3.2 384.82-4.38 386.02-5.55 386.02-7.05L386.02-7.05Q386.02-8.55 384.85-9.6 383.67-10.65 381.82-11.53 379.97-12.4 377.9-13.38 375.82-14.35 374-15.73 372.17-17.1 370.97-19.15 369.77-21.2 369.77-24.25L369.77-24.25Q369.77-27.8 371.37-29.98 372.97-32.15 375.6-33.2 378.22-34.25 381.42-34.25L381.42-34.25Q383.32-34.25 385.2-33.95 387.07-33.65 388.7-33.18 390.32-32.7 391.27-32.05L391.27-32.05Q391.27-30.1 391.32-28.03 391.37-25.95 391.57-24.75L391.57-24.75Q390.67-24.2 389.2-23.98 387.72-23.75 386.57-23.75L386.57-23.75Q386.17-26.5 385.4-28 384.62-29.5 383.5-30.1 382.37-30.7 380.92-30.7L380.92-30.7Q379.07-30.7 377.85-29.85 376.62-29 376.62-27.3L376.62-27.3Q376.62-25.6 377.87-24.45 379.12-23.3 381.07-22.38 383.02-21.45 385.22-20.48 387.42-19.5 389.37-18.13 391.32-16.75 392.57-14.73 393.82-12.7 393.82-9.7L393.82-9.7Q393.82-6.7 392.35-4.4 390.87-2.1 388-0.83 385.12 0.45 380.82 0.45ZM408.87 0.45L408.87 0.45Q405.62 0.45 402.72-0.33 399.82-1.1 397.12-2.5L397.12-2.5Q397.52-4.5 397.64-6.6 397.77-8.7 397.77-10.6L397.77-10.6Q398.97-10.95 400.37-11.05 401.77-11.15 403.02-11.15L403.02-11.15Q403.27-8.15 403.82-6.43 404.37-4.7 405.59-3.95 406.82-3.2 408.87-3.2L408.87-3.2Q411.67-3.2 412.87-4.38 414.07-5.55 414.07-7.05L414.07-7.05Q414.07-8.55 412.89-9.6 411.72-10.65 409.87-11.53 408.02-12.4 405.94-13.38 403.87-14.35 402.04-15.73 400.22-17.1 399.02-19.15 397.82-21.2 397.82-24.25L397.82-24.25Q397.82-27.8 399.42-29.98 401.02-32.15 403.64-33.2 406.27-34.25 409.47-34.25L409.47-34.25Q411.37-34.25 413.24-33.95 415.12-33.65 416.74-33.18 418.37-32.7 419.32-32.05L419.32-32.05Q419.32-30.1 419.37-28.03 419.42-25.95 419.62-24.75L419.62-24.75Q418.72-24.2 417.24-23.98 415.77-23.75 414.62-23.75L414.62-23.75Q414.22-26.5 413.44-28 412.67-29.5 411.54-30.1 410.42-30.7 408.97-30.7L408.97-30.7Q407.12-30.7 405.89-29.85 404.67-29 404.67-27.3L404.67-27.3Q404.67-25.6 405.92-24.45 407.17-23.3 409.12-22.38 411.07-21.45 413.27-20.48 415.47-19.5 417.42-18.13 419.37-16.75 420.62-14.73 421.87-12.7 421.87-9.7L421.87-9.7Q421.87-6.7 420.39-4.4 418.92-2.1 416.04-0.83 413.17 0.45 408.87 0.45ZM428.82-8.6L428.82-25.3Q428.82-27.4 428.57-28.45 428.32-29.5 427.59-29.93 426.87-30.35 425.52-30.5L425.52-30.5Q425.32-31.15 425.22-32.13 425.12-33.1 425.12-33.95L425.12-33.95Q425.97-33.9 427.44-33.88 428.92-33.85 430.54-33.83 432.17-33.8 433.32-33.8L433.32-33.8Q434.47-33.8 435.92-33.83 437.37-33.85 438.77-33.88 440.17-33.9 441.17-33.95L441.17-33.95Q441.17-33.05 441.12-32.2 441.07-31.35 440.77-30.5L440.77-30.5Q439.42-30.35 438.69-29.95 437.97-29.55 437.72-28.48 437.47-27.4 437.47-25.3L437.47-25.3 437.47-8.6Q437.47-6.45 437.72-5.35 437.97-4.25 438.72-3.83 439.47-3.4 440.77-3.3L440.77-3.3Q440.97-2.7 441.07-1.73 441.17-0.75 441.17 0.15L441.17 0.15Q439.97 0.05 437.97 0.03 435.97 0 433.67 0L433.67 0Q431.37 0 429.04 0.03 426.72 0.05 425.12 0.15L425.12 0.15Q425.12-0.7 425.24-1.7 425.37-2.7 425.52-3.3L425.52-3.3Q426.87-3.4 427.59-3.83 428.32-4.25 428.57-5.35 428.82-6.45 428.82-8.6L428.82-8.6ZM471.16-12.25L469.91 0.4 447.91-29.05Q447.46-29.8 446.79-30.08 446.11-30.35 444.61-30.5L444.61-30.5Q444.41-31.25 444.31-32.15 444.21-33.05 444.21-33.95L444.21-33.95Q444.86-33.9 445.96-33.88 447.06-33.85 448.21-33.83 449.36-33.8 450.11-33.8L450.11-33.8Q451.31-33.8 452.79-33.83 454.26-33.85 455.21-33.95L455.21-33.95 471.16-12.25ZM444.21 0.15L444.21 0.15Q444.21-0.9 444.29-1.75 444.36-2.6 444.61-3.3L444.61-3.3Q446.11-3.45 446.94-4.05 447.76-4.65 448.14-6.15 448.51-7.65 448.51-10.5L448.51-10.5 448.51-30.7 451.96-30.4 451.96-10.5Q451.96-7.65 452.26-6.15 452.56-4.65 453.39-4.05 454.21-3.45 455.76-3.3L455.76-3.3Q455.96-2.6 456.01-1.68 456.06-0.75 456.06 0.15L456.06 0.15Q455.36 0.1 454.31 0.08 453.26 0.05 452.21 0.03 451.16 0 450.31 0L450.31 0Q449.51 0 448.29 0.03 447.06 0.05 445.96 0.08 444.86 0.1 444.21 0.15ZM469.91 0.4L469.91 0.4 470.41-7.9 470.41-23.35Q470.41-26.2 470.11-27.68 469.81-29.15 468.94-29.75 468.06-30.35 466.36-30.5L466.36-30.5Q466.16-31.35 466.09-32.27 466.01-33.2 466.01-33.95L466.01-33.95Q466.76-33.9 467.86-33.88 468.96-33.85 470.14-33.83 471.31-33.8 472.11-33.8L472.11-33.8Q473.36-33.8 474.86-33.85 476.36-33.9 477.26-33.95L477.26-33.95Q477.26-33.1 477.21-32.25 477.16-31.4 476.96-30.5L476.96-30.5Q475.71-30.4 475.04-29.8 474.36-29.2 474.11-27.73 473.86-26.25 473.86-23.35L473.86-23.35 473.86 0Q473.01 0.25 472.06 0.33 471.11 0.4 469.91 0.4ZM498.06 0.45L498.06 0.45Q492.71 0.45 488.79-1.65 484.86-3.75 482.76-7.7 480.66-11.65 480.66-17.2L480.66-17.2Q480.66-21.3 481.94-24.48 483.21-27.65 485.59-29.83 487.96-32 491.21-33.13 494.46-34.25 498.41-34.25L498.41-34.25Q501.81-34.25 504.91-33.5 508.01-32.75 510.21-31.7L510.21-31.7Q509.91-30 509.79-28.03 509.66-26.05 509.66-23.95L509.66-23.95Q508.71-23.55 507.54-23.45 506.36-23.35 505.31-23.35L505.31-23.35Q505.16-26.2 504.29-27.83 503.41-29.45 501.89-30.13 500.36-30.8 498.36-30.8L498.36-30.8Q495.26-30.8 493.31-29.03 491.36-27.25 490.49-24.4 489.61-21.55 489.61-18.4L489.61-18.4Q489.61-14 490.71-10.55 491.81-7.1 493.84-5.13 495.86-3.15 498.76-3.15L498.76-3.15Q499.66-3.15 500.26-3.23 500.86-3.3 501.36-3.5L501.36-3.5Q502.11-3.8 502.56-4.5 503.01-5.2 503.01-7.15L503.01-7.15 503.01-9.05Q503.01-10.75 502.74-11.6 502.46-12.45 501.64-12.75 500.81-13.05 499.26-13.1L499.26-13.1Q499.06-13.8 498.99-14.68 498.91-15.55 498.91-16.55L498.91-16.55Q500.26-16.5 502.14-16.45 504.01-16.4 505.66-16.4L505.66-16.4Q507.21-16.4 509.19-16.43 511.16-16.45 512.51-16.5L512.51-16.5Q512.51-15.7 512.46-14.8 512.41-13.9 512.21-13.1L512.21-13.1Q511.31-13.05 510.86-12.78 510.41-12.5 510.31-11.78 510.21-11.05 510.21-9.65L510.21-9.65 510.21-8.2Q510.21-6.4 510.36-5.48 510.51-4.55 511.01-3.4L511.01-3.4Q508.71-1.75 505.36-0.65 502.01 0.45 498.06 0.45ZM527.91 0.45L527.91 0.45Q524.66 0.45 521.76-0.33 518.86-1.1 516.16-2.5L516.16-2.5Q516.56-4.5 516.68-6.6 516.81-8.7 516.81-10.6L516.81-10.6Q518.01-10.95 519.41-11.05 520.81-11.15 522.06-11.15L522.06-11.15Q522.31-8.15 522.86-6.43 523.41-4.7 524.63-3.95 525.86-3.2 527.91-3.2L527.91-3.2Q530.71-3.2 531.91-4.38 533.11-5.55 533.11-7.05L533.11-7.05Q533.11-8.55 531.93-9.6 530.76-10.65 528.91-11.53 527.06-12.4 524.98-13.38 522.91-14.35 521.08-15.73 519.26-17.1 518.06-19.15 516.86-21.2 516.86-24.25L516.86-24.25Q516.86-27.8 518.46-29.98 520.06-32.15 522.68-33.2 525.31-34.25 528.51-34.25L528.51-34.25Q530.41-34.25 532.28-33.95 534.16-33.65 535.78-33.18 537.41-32.7 538.36-32.05L538.36-32.05Q538.36-30.1 538.41-28.03 538.46-25.95 538.66-24.75L538.66-24.75Q537.76-24.2 536.28-23.98 534.81-23.75 533.66-23.75L533.66-23.75Q533.26-26.5 532.48-28 531.71-29.5 530.58-30.1 529.46-30.7 528.01-30.7L528.01-30.7Q526.16-30.7 524.93-29.85 523.71-29 523.71-27.3L523.71-27.3Q523.71-25.6 524.96-24.45 526.21-23.3 528.16-22.38 530.11-21.45 532.31-20.48 534.51-19.5 536.46-18.13 538.41-16.75 539.66-14.73 540.91-12.7 540.91-9.7L540.91-9.7Q540.91-6.7 539.43-4.4 537.96-2.1 535.08-0.83 532.21 0.45 527.91 0.45Z" opacity="1" transform="matrix(1,0,0,1,0,0)" fill="#4d7e3e" class="undefined-text-0" data-fill-palette-color="primary" id="text-0"></path></svg></g></svg></g></svg></g></svg></g><g transform="matrix(1,0,0,1,171.74400892467003,0)"><svg viewBox="0 0 54.00958215065988 35.186568607735836" height="35.186568607735836" width="54.00958215065988"><g><svg xmlns="http://www.w3.org/2000/svg" xmlns:xlink="http://www.w3.org/1999/xlink" version="1.1" x="8" y="0" viewBox="15.333999633789062 23.986000061035156 433.78900146484375 401.5710144042969" enable-background="new 0 0 463.893 438.877" xml:space="preserve" height="35.186568607735836" width="38.00958215065988" class="icon-icon-0" data-fill-palette-color="accent" id="icon-0"><path d="M232.272 88.949L79.937 223.837v192.749c0 4.979 4.023 8.971 9.001 8.971h95.205v-84.51c0-4.979 3.994-9 8.971-9h78.229c4.978 0 8.97 4.021 8.97 9v84.51h95.235c4.979 0 8.972-3.992 8.972-8.971V223.779L232.272 88.949zM276.328 277.105h-85.096V224.74h85.096V277.105z" fill="#4d7e3e" data-fill-palette-color="accent"></path><path d="M79.937 42.699h54.771l-0.479 32.438-54.293 49.048V42.699z" fill="#4d7e3e" data-fill-palette-color="accent"></path><path d="M231.388 24.746L15.334 216.053l22.758 25.676 194.18-171.952 194.136 171.952 22.715-25.676L233.113 24.746l-0.884-0.76L231.388 24.746z" fill="#4d7e3e" data-fill-palette-color="accent"></path></svg></g></svg></g><g><rect width="95.21088892467006" height="2.2960644497716505" y="31.890504157964187" x="225.7535910753299" fill="#4d7e3e" data-fill-palette-color="secondary"></rect><rect width="95.21088892467006" height="2.2960644497716505" y="31.890504157964187" x="76.53311999999997" fill="#4d7e3e" data-fill-palette-color="secondary"></rect></g></svg></g><defs></defs></svg><rect width="395.52" height="74.59156909698316" fill="none" stroke="none" visibility="hidden"></rect></g></svg></g></svg>