<svg xmlns="http://www.w3.org/2000/svg" version="1.1" xmlns:xlink="http://www.w3.org/1999/xlink" xmlns:svgjs="http://svgjs.dev/svgjs" width="128" height="128" viewBox="0 0 128 128"><g transform="matrix(0.8046875,0,0,0.8046875,12.760752631578946,16.733584984767482)"><svg viewBox="0 0 95 88" data-background-color="#ffffff" preserveAspectRatio="xMidYMid meet" height="118" width="128" xmlns="http://www.w3.org/2000/svg" xmlns:xlink="http://www.w3.org/1999/xlink"><g id="tight-bounds" transform="matrix(1,0,0,1,-0.24049999999999727,-0.19475903146461349)"><svg viewBox="0 0 95.481 88.38951806292921" height="88.38951806292921" width="95.481"><g><svg viewBox="0 0 95.481 88.38951806292921" height="88.38951806292921" width="95.481"><g><svg viewBox="0 0 95.481 88.38951806292921" height="88.38951806292921" width="95.481"><g><svg viewBox="0 0 95.481 88.38951806292921" height="88.38951806292921" width="95.481"><g><svg viewBox="0 0 95.481 88.38951806292921" height="88.38951806292921" width="95.481"><g><svg viewBox="0 0 95.481 88.38951806292921" height="88.38951806292921" width="95.481"><g><svg xmlns="http://www.w3.org/2000/svg" xmlns:xlink="http://www.w3.org/1999/xlink" version="1.1" x="0" y="0" viewBox="15.334 23.985999999999997 433.789 401.571" enable-background="new 0 0 463.893 438.877" xml:space="preserve" height="88.38951806292921" width="95.481" class="icon-icon-0" data-fill-palette-color="accent" id="icon-0"><path d="M232.272 88.949L79.937 223.837v192.749c0 4.979 4.023 8.971 9.001 8.971h95.205v-84.51c0-4.979 3.994-9 8.971-9h78.229c4.978 0 8.97 4.021 8.97 9v84.51h95.235c4.979 0 8.972-3.992 8.972-8.971V223.779L232.272 88.949zM276.328 277.105h-85.096V224.74h85.096V277.105z" fill="#4d7e3e" data-fill-palette-color="accent"></path><path d="M79.937 42.699h54.771l-0.479 32.438-54.293 49.048V42.699z" fill="#4d7e3e" data-fill-palette-color="accent"></path><path d="M231.388 24.746L15.334 216.053l22.758 25.676 194.18-171.952 194.136 171.952 22.715-25.676L233.113 24.746l-0.884-0.76L231.388 24.746z" fill="#4d7e3e" data-fill-palette-color="accent"></path></svg><g></g></g></svg></g></svg></g></svg></g></svg></g><g></g></svg></g><defs></defs></svg><rect width="95.481" height="88.38951806292921" fill="none" stroke="none" visibility="hidden"></rect></g></svg></g></svg>